<svg xmlns="http://www.w3.org/2000/svg" version="1.1" xmlns:xlink="http://www.w3.org/1999/xlink" xmlns:svgjs="http://svgjs.dev/svgjs" width="1500" height="1687" viewBox="0 0 1500 1687"><g transform="matrix(1,0,0,1,0.00011015625000254659,0)"><svg viewBox="0 0 320 360" data-background-color="#ffffff" preserveAspectRatio="xMidYMid meet" height="1687" width="1500" xmlns="http://www.w3.org/2000/svg" xmlns:xlink="http://www.w3.org/1999/xlink"><g id="tight-bounds" transform="matrix(1,0,0,1,0.000023499999997511622,0)"><svg viewBox="0 0 320 360" height="360" width="320"><g><svg></svg></g><g><svg viewBox="0 0 320 360" height="360" width="320"><g><path transform="translate(-74.99272,-51.79039) scale(4.65793,4.65793)" d="M20.6 59.9l0.8 1-0.4-1.3c-0.1-0.6-0.8 0.1-0.4 0.3M21.5 59.3c0.3 0.5 0.6 1 0.6 1.5 0 0.7 0.6 1 1.1 1.2-0.7-0.8-1.1-3-1.7-2.7M59.9 16.9c1.7 0 3.3-0.2 5.1 0.2 4.4 1.1 8.1 3.3 10.6 6.4l7 11.2c0.3 2.8 0.9 5.9 0.8 9.3 0.7 0 0.6-1 1.4-1.2-0.8 2-1.2 4.5-1.4 7.4-0.5-1.6 0-4 0.1-5.3-0.7 1.1-1.1 0.3-1.1-0.2 0.1-0.8-0.3-0.7-0.6-1-1.1-1-1.8-2.1-2.6-3.8 0.5-1.3 0.6-3.2-1-4.2-0.5-0.3-1.1-0.8-1.4-1.6-0.4-1.1-1.1-2.4-0.9-4.1 0.1-0.5-1.5 1.1-2.4 0.4-3.9-2.7-7.8-5.8-12.5-8.4-2.5 0-4.3-0.9-5.2-2-0.8-1-0.2-2.3 1-2.4 0.7 0 1.5-0.2 2.1 0.2 0.1-0.4 0.5-0.9 1-0.9M50 14.6l0.2 0.1c1 0.2 1.5 1.6 2.6 1.1 0 0.7 0.1 1.4-0.1 1.9-0.3 0.8-1.2 0.8-1.9 0.8-6.7-0.4-10.6 2.4-14.7 4.8-1.1 0.7-2.3 1.2-3.2 2.1-4.3 4-9 7.7-10.1 15.1l-0.9 8.2c-0.1 0.9-1.1 1.8-0.9 2.9l0.7 4.9c-0.7-0.7-1.1 0.2-0.9 0.6 0.1 0.3 0.5 1.3 1.1 0.4 0.8 1.5 1.6 4.4 2.7 5.7 3.4 4 7.8 7.6 11.4 11.2 0.9-0.2 1.6-0.2 1.8-0.8 0.3 0.6-0.3 1.2-0.8 1.3 1.6 1 3.4 1.9 5.8 2.1 3.1 0.2 6 0.7 8.7 1.4 1.4-0.4 2.8-0.6 4.3-0.7 0.5 0 0.8-0.8 1.4-1l0.1-1c0.6 0.9 0.5-0.3 0.1-0.9 0.7 0.6 0.9 1.1 1.2 1.5 0-0.3 0.8-1.4 0.8-0.1l0.2-1.3c0.3-0.2 0.4 1.1 0.7 0.2 0.3-0.9 0.9-0.2 1.5-0.5-0.2 0.4-0.1 1.2 0.6 0.7l0.8-0.7c0.5 1.2 1.3 0.7 1.7 0.5 4.4-2.8 8.8-6.1 13-9.4l-0.1 1.3 0.5-1.6c0.5 0.5 0.9 0.1 1.1-0.2 0.6-1 1.4-2 2.7-2.9-1.6 4.3-3.5 7.7-5.9 10.5l-1 1.2c0 0.7-0.2 1.6-1 1.7-0.4 0.1-1.2-0.2-1.8 0.4-0.3 0.4 0.7 1.2-0.1 0.6-0.7-0.5-1.4 0-2.2 0.2-0.6 0.2 0.4 0.8 0.6 1.2 0.2 0.4 0.4 0.8 0.3 1.3l-1.1-1.2c-1.3 0.7-2.1 2-3.2 3-0.5 0.4-0.3 1.1-0.3 1.7-0.7 0-1.5-0.2-1.9 0.2-0.3 0.4-0.2 1-0.2 1.6-1-0.1-1.1-1.6-2-1.3-0.9 0.2-1.9 0.3-2.7 0.8 0.6 1.2-1 0.5-0.8 0.7-1.5-0.9-2.8-1.6-4.4-1-3.4-1.1-7.6-0.6-10.7-0.2 0-0.5 0.1-1-0.1-1.1-0.2 0.5-0.8 0.3-0.7 0.3-1.9-1.3-3.8-2.1-5.8-3.2-1.8 0.2-3.5-0.7-4-1.2-1.4-1.3-3-0.6-4.3-0.9-2.8-0.7-3.8-3.6-4.1-5.6-0.2-1-1-1.4-1.3-1.3-1.3-4.2-3.3-8-4.9-11.9-0.4-1-0.3-2-0.3-3.1 0.5 0.2 1 0.1 0.9-0.6-0.5-3.3-1.7-5.8-3-8.2 0.7-3.4 0.8-7.4 2.4-10.4 1.4-2.7 4-4.1 5.8-6.4 0.6-0.8 0.6-1.9 1.2-2.6 2-2 4-4.1 6.2-5.9 1-0.8 2.2 0 3.7-0.3 0.5-1.8 2.5-3.4 4.4-2.9 0.8 0.2 2.4-1.9 2.9-2.1 0.8-0.3 0.4 0.8 0.4 1.5 1.9-1.5 4.5-2.3 6.9-3.2" fill="#5ebc67" fill-rule="nonzero" stroke="none" stroke-width="1" stroke-linecap="butt" stroke-linejoin="miter" stroke-miterlimit="10" stroke-dasharray="" stroke-dashoffset="0" font-family="none" font-weight="none" font-size="none" text-anchor="none" style="mix-blend-mode: normal" data-fill-palette-color="tertiary"></path></g><g transform="matrix(1,0,0,1,64,106.38843616438356)"><svg viewBox="0 0 192 147.22312767123287" height="147.22312767123287" width="192"><g><svg viewBox="0 0 192 147.22312767123287" height="147.22312767123287" width="192"><g><svg viewBox="0 0 192 147.22312767123287" height="147.22312767123287" width="192"><g transform="matrix(1,0,0,1,0,88.98438011741682)"><svg viewBox="0 0 192 58.23874755381604" height="58.23874755381604" width="192"><g id="textblocktransform"><svg viewBox="0 0 192 58.23874755381604" height="58.23874755381604" width="192" id="textblock"><g><svg viewBox="0 0 192 58.23874755381604" height="58.23874755381604" width="192"><g transform="matrix(1,0,0,1,0,0)"><svg width="192" viewBox="2.75 -25.25 102.19 31" height="58.23874755381604" data-palette-color="#152232"><path d="M13.55 0.45Q12.9 0.35 10.93 0.18 8.95 0 7.6 0L7.6 0Q6.3 0 4.75 0.18 3.2 0.35 2.75 0.45L2.75 0.45 3-1.65Q4.8-1.95 5.45-2.65 6.1-3.35 6.1-4.95L6.1-4.95 6.15-20.85Q6.15-22.1 5.85-22.53 5.55-22.95 4.7-22.95L4.7-22.95Q4.25-22.95 3.85-22.9 3.45-22.85 3.3-22.85L3.3-22.85 3.2-23.1 3.5-25Q4-25 5.33-24.95 6.65-24.9 8-24.9L8-24.9Q9.8-24.9 11.7-24.98 13.6-25.05 14.3-25.05L14.3-25.05Q18.3-25.05 21.35-23.6 24.4-22.15 26.08-19.53 27.75-16.9 27.75-13.4L27.75-13.4Q27.75-9.5 25.88-6.35 24-3.2 20.75-1.38 17.5 0.45 13.55 0.45L13.55 0.45ZM11.65-22.7Q10.85-22.7 10.58-22.53 10.3-22.35 10.25-21.8L10.25-21.8Q9.65-7.75 9.65-5.3L9.65-5.3Q9.65-3.95 10.05-3.23 10.45-2.5 11.45-2.23 12.45-1.95 14.4-1.95L14.4-1.95Q18.6-1.95 20.98-4.7 23.35-7.45 23.35-12.4L23.35-12.4Q23.35-17.45 20.35-20.08 17.35-22.7 11.65-22.7L11.65-22.7ZM46.35 0.7Q41.3-13 38.8-19.35L38.8-19.35 38.55-19.35Q38.35-16.95 37.82-10.4 37.3-3.85 37.3-3.2L37.3-3.2Q37.3-2.55 37.6-2.27 37.9-2 38.6-2L38.6-2 40.2-2 40.3-1.85 39.95 0.15Q39.5 0.15 38.22 0.08 36.95 0 35.7 0L35.7 0Q34.7 0 33.55 0.13 32.4 0.25 32.05 0.3L32.05 0.3 32.25-1.75Q33.55-1.9 34.1-2.53 34.65-3.15 34.85-4.7L34.85-4.7Q35.25-8.1 35.92-14.25 36.6-20.4 36.6-21.15L36.6-21.15Q36.6-22.15 35.82-22.63 35.05-23.1 33.15-23.2L33.15-23.2 33-23.45 33.35-25.1Q33.9-25.05 35.3-24.98 36.7-24.9 38-24.9L38-24.9Q39.1-24.9 40.02-24.95 40.95-25 41.25-25.05L41.25-25.05Q42.75-20.4 44.17-16.32 45.6-12.25 46.52-9.83 47.45-7.4 47.7-6.8L47.7-6.8 47.95-6.8Q48.5-8.2 50.42-13.35 52.35-18.5 54.6-24.95L54.6-24.95Q54.9-25 55.37-24.98 55.85-24.95 56.3-24.95L56.3-24.95Q56.85-24.9 57.9-24.9L57.9-24.9Q58.7-24.9 60.22-25 61.75-25.1 62.25-25.15L62.25-25.15 62.35-25 62.1-23.25Q60.35-23.05 59.65-22.58 58.95-22.1 58.95-21.1L58.95-21.1Q58.95-20.1 59.3-14.75 59.65-9.4 60-5.65L60-5.65Q60.25-3.4 60.65-2.7 61.05-2 62-2L62-2 63.15-2.05 63.25-1.9 62.9 0.1Q62.5 0.1 61.35 0.05 60.2 0 58.9 0L58.9 0Q57.6 0 55.95 0.15 54.3 0.3 54.2 0.3L54.2 0.3 54.4-1.75Q55.7-1.9 56.25-2.35 56.8-2.8 56.8-3.7L56.8-3.7Q56.8-4.6 56.27-10.85 55.75-17.1 55.55-19.35L55.55-19.35 55.3-19.35Q52.35-11.8 47.8 0.4L47.8 0.4 46.35 0.7ZM71.7-20.85Q71.7-22.1 71.39-22.53 71.09-22.95 70.2-22.95L70.2-22.95 68.84-22.9 68.7-23.1 69-25Q69.55-25 71-24.95 72.45-24.9 73.8-24.9L73.8-24.9Q74.89-24.9 76.45-25.05 78-25.2 78.5-25.25L78.5-25.25 78.34-23.2Q76.8-22.95 76.25-22.48 75.7-22 75.65-20.9L75.65-20.9 75.2-4.65Q75.15-3.05 75.52-2.5 75.9-1.95 76.95-1.95L76.95-1.95Q77.55-1.95 78.05-2 78.55-2.05 78.7-2.1L78.7-2.1 78.8-1.9 78.45 0.1Q77.9 0.1 76.34 0.05 74.8 0 73.2 0L73.2 0 68.25 0.05 68.64-1.95Q70.55-2.15 71.09-2.7 71.64-3.25 71.64-4.95L71.64-4.95 71.7-20.85ZM76.34-12.95L83.34-19.9Q84.55-21.05 84.55-21.85L84.55-21.85Q84.55-22.9 82.09-23.05L82.09-23.05 82-23.25 82.3-25.15Q82.8-25.1 84.4-25 86-24.9 86.95-24.9L86.95-24.9Q88.25-24.9 89.42-24.95 90.59-25 91-25.05L91-25.05 91.2-24.75 90.9-22.95Q89.8-22.65 88.82-21.93 87.84-21.2 86-19.3L86-19.3 80-13.35 86.5-5.05Q87.95-3.25 89.07-2.5 90.2-1.75 91.59-1.7L91.59-1.7 91.8-1.45 91.55 0.1Q91.05 0.15 89.82 0.33 88.59 0.5 87.8 0.55L87.8 0.55Q85.59 0.55 83.2-2.75L83.2-2.75 76.3-12.3 76.34-12.95ZM94.84 5.75L94.04 4.35 94.14 4Q96.59 2.5 97.47 0.73 98.34-1.05 98.34-4.6L98.34-4.6 98.39-20.85Q98.39-22.1 98.09-22.5 97.79-22.9 96.89-22.9L96.89-22.9Q96.39-22.9 95.82-22.85 95.24-22.8 95.04-22.8L95.04-22.8 94.89-23 95.19-24.9 99.79-24.9Q101.09-24.9 102.77-25.05 104.44-25.2 104.94-25.25L104.94-25.25 104.74-23.2Q103.34-23 102.94-22.6 102.54-22.2 102.44-21L102.44-21Q101.94-9.35 101.94-4.35L101.94-4.35Q101.89-0.4 100.22 2 98.54 4.4 94.84 5.75L94.84 5.75Z" opacity="1" transform="matrix(1,0,0,1,0,0)" fill="#152232" class="wordmark-text-0" data-fill-palette-color="primary" id="text-0"></path></svg></g></svg></g></svg></g></svg></g><g transform="matrix(1,0,0,1,55.75702544031311,0)"><svg viewBox="0 0 80.48594911937379 80.48594911937377" height="80.48594911937377" width="80.48594911937379"><g><svg xmlns="http://www.w3.org/2000/svg" xmlns:xlink="http://www.w3.org/1999/xlink" version="1.1" x="0" y="0" viewBox="0.041 0.041 23.918000000000003 23.918" style="enable-background:new 0 0 24 24;" xml:space="preserve" height="80.48594911937377" width="80.48594911937379" class="icon-icon-0" data-fill-palette-color="accent" id="icon-0"><g fill="#5ebc67" data-fill-palette-color="accent"><rect x="18.085" y="15.751" width="4.325" height="2.505" fill="#5ebc67" data-fill-palette-color="accent"></rect><path d="M0.041 23.959h14.021v-8.248H0.041V23.959zM8.866 17.888c-0.186-0.149-0.216-0.42-0.067-0.607 0.149-0.185 0.42-0.215 0.607-0.067l2.861 2.288c0.102 0.082 0.162 0.206 0.162 0.337 0 0.131-0.06 0.255-0.162 0.337l-2.861 2.289c-0.08 0.063-0.175 0.095-0.269 0.095-0.127 0-0.252-0.056-0.338-0.162C8.65 22.211 8.68 21.939 8.866 21.79l2.44-1.952L8.866 17.888zM5.684 22.411l1.85-5.428c0.077-0.225 0.323-0.347 0.547-0.27 0.225 0.077 0.346 0.322 0.269 0.548L6.5 22.689c-0.061 0.179-0.229 0.293-0.408 0.293-0.046 0-0.093-0.007-0.139-0.023C5.728 22.882 5.607 22.636 5.684 22.411zM1.837 19.501l2.861-2.288c0.188-0.147 0.458-0.118 0.607 0.067 0.149 0.186 0.119 0.458-0.067 0.607l-2.44 1.951 2.44 1.952c0.186 0.15 0.216 0.42 0.067 0.607-0.085 0.106-0.211 0.162-0.338 0.162-0.094 0-0.19-0.032-0.269-0.095l-2.861-2.289c-0.102-0.082-0.162-0.206-0.162-0.337C1.675 19.708 1.735 19.584 1.837 19.501z" fill="#5ebc67" data-fill-palette-color="accent"></path><rect x="4.143" y="9.114" width="9.983" height="2.473" fill="#5ebc67" data-fill-palette-color="accent"></rect><path d="M16.536 19.835h7.423V3.34h-7.423V19.835zM23.273 18.688c0 0.238-0.193 0.432-0.431 0.432h-5.187c-0.238 0-0.431-0.194-0.431-0.432v-3.369c0-0.238 0.193-0.432 0.431-0.432h5.187c0.238 0 0.431 0.194 0.431 0.432V18.688zM17.361 4.97h5.773c0.238 0 0.431 0.194 0.431 0.432s-0.193 0.432-0.431 0.432h-5.773c-0.238 0-0.431-0.194-0.431-0.432S17.123 4.97 17.361 4.97zM17.361 7.444h5.773c0.238 0 0.431 0.194 0.431 0.432s-0.193 0.432-0.431 0.432h-5.773c-0.238 0-0.431-0.194-0.431-0.432S17.123 7.444 17.361 7.444zM17.361 9.919h0.38 2.265 0.38 2.265 0.38 0.103c0.238 0 0.431 0.194 0.431 0.432s-0.193 0.432-0.431 0.432h-0.103-0.38-2.265-0.38-2.265-0.38c-0.238 0-0.431-0.194-0.431-0.432S17.123 9.919 17.361 9.919zM17.361 12.393h2.645 0.38 2.265 0.38 0.103c0.238 0 0.431 0.194 0.431 0.432 0 0.238-0.193 0.432-0.431 0.432h-0.103-0.38-2.265-0.38-2.645c-0.238 0-0.431-0.194-0.431-0.432C16.93 12.587 17.123 12.393 17.361 12.393z" fill="#5ebc67" data-fill-palette-color="accent"></path><path d="M2.515 14.887h11.716c0.362 0 0.656 0.294 0.656 0.656v4.293h0.825V3.34H2.515V14.887zM6.967 14.163H6.242c-0.238 0-0.431-0.194-0.431-0.432s0.193-0.432 0.431-0.432h0.726c0.238 0 0.431 0.194 0.431 0.432S7.205 14.163 6.967 14.163zM9.497 14.163H8.771c-0.238 0-0.431-0.194-0.431-0.432s0.193-0.432 0.431-0.432h0.726c0.238 0 0.431 0.194 0.431 0.432S9.735 14.163 9.497 14.163zM12.027 14.163h-0.726c-0.238 0-0.431-0.194-0.431-0.432s0.193-0.432 0.431-0.432h0.726c0.238 0 0.431 0.194 0.431 0.432S12.265 14.163 12.027 14.163zM14.557 14.163h-0.725c-0.238 0-0.431-0.194-0.431-0.432s0.193-0.432 0.431-0.432h0.725c0.238 0 0.431 0.194 0.431 0.432S14.795 14.163 14.557 14.163zM13.832 4.145h0.725c0.238 0 0.431 0.194 0.431 0.432s-0.193 0.432-0.431 0.432h-0.725c-0.238 0-0.431-0.194-0.431-0.432S13.594 4.145 13.832 4.145zM11.302 4.145h0.726c0.238 0 0.431 0.194 0.431 0.432s-0.193 0.432-0.431 0.432h-0.726c-0.238 0-0.431-0.194-0.431-0.432S11.063 4.145 11.302 4.145zM8.771 4.145h0.726c0.238 0 0.431 0.194 0.431 0.432S9.735 5.009 9.497 5.009H8.771c-0.238 0-0.431-0.194-0.431-0.432S8.533 4.145 8.771 4.145zM6.242 4.145h0.726c0.238 0 0.431 0.194 0.431 0.432S7.205 5.009 6.967 5.009H6.242c-0.238 0-0.431-0.194-0.431-0.432S6.003 4.145 6.242 4.145zM3.711 4.145h0.726c0.238 0 0.431 0.194 0.431 0.432S4.675 5.009 4.437 5.009H3.711c-0.238 0-0.431-0.194-0.431-0.432S3.473 4.145 3.711 4.145zM3.711 6.304h7.748 0.144 2.954c0.238 0 0.431 0.194 0.431 0.432 0 0.238-0.193 0.432-0.431 0.432h-2.954H11.46 3.711c-0.238 0-0.431-0.194-0.431-0.432C3.28 6.498 3.473 6.304 3.711 6.304zM3.28 8.682c0-0.238 0.193-0.432 0.431-0.432h10.846c0.238 0 0.431 0.194 0.431 0.432v3.337c0 0.238-0.193 0.432-0.431 0.432H3.711c-0.238 0-0.431-0.194-0.431-0.432V8.682zM3.711 13.299h0.726c0.238 0 0.431 0.194 0.431 0.432s-0.193 0.432-0.431 0.432H3.711c-0.238 0-0.431-0.194-0.431-0.432S3.473 13.299 3.711 13.299z" fill="#5ebc67" data-fill-palette-color="accent"></path><path d="M2.515 0.041v2.474h21.444V0.041H2.515zM3.648 1.698c-0.246 0-0.445-0.199-0.445-0.445 0-0.246 0.199-0.445 0.445-0.445 0.246 0 0.445 0.199 0.445 0.445C4.093 1.498 3.894 1.698 3.648 1.698zM5.317 1.698c-0.246 0-0.445-0.199-0.445-0.445 0-0.246 0.199-0.445 0.445-0.445s0.445 0.199 0.445 0.445C5.761 1.498 5.562 1.698 5.317 1.698zM6.985 1.698c-0.246 0-0.445-0.199-0.445-0.445 0-0.246 0.199-0.445 0.445-0.445S7.43 1.007 7.43 1.253C7.43 1.498 7.231 1.698 6.985 1.698zM23.044 1.684h-7.932c-0.238 0-0.431-0.194-0.431-0.432s0.193-0.432 0.431-0.432h7.932c0.238 0 0.431 0.194 0.431 0.432S23.282 1.684 23.044 1.684z" fill="#5ebc67" data-fill-palette-color="accent"></path></g></svg></g></svg></g><g></g></svg></g></svg></g></svg></g></svg></g><defs></defs></svg><rect width="320" height="360" fill="none" stroke="none" visibility="hidden"></rect></g></svg></g></svg>