<svg xmlns="http://www.w3.org/2000/svg" version="1.1" xmlns:xlink="http://www.w3.org/1999/xlink" xmlns:svgjs="http://svgjs.dev/svgjs" width="1500" height="1500" viewBox="0 0 1500 1500"><rect width="1500" height="1500" fill="#ffffff"></rect><g transform="matrix(0.6666666666666666,0,0,0.6666666666666666,249.39393939393938,689.9694387250624)"><svg viewBox="0 0 396 48" data-background-color="#ffffff" preserveAspectRatio="xMidYMid meet" height="181" width="1500" xmlns="http://www.w3.org/2000/svg" xmlns:xlink="http://www.w3.org/1999/xlink"><g id="tight-bounds" transform="matrix(1,0,0,1,0.2400000000000091,-0.12043971383701546)"><svg viewBox="0 0 395.52 48.24087942767405" height="48.24087942767405" width="395.52"><g><svg viewBox="0 0 395.52 48.24087942767405" height="48.24087942767405" width="395.52"><g><svg viewBox="0 0 395.52 48.24087942767405" height="48.24087942767405" width="395.52"><g id="textblocktransform"><svg viewBox="0 0 395.52 48.24087942767405" height="48.24087942767405" width="395.52" id="textblock"><g><svg viewBox="0 0 395.52 48.24087942767405" height="48.24087942767405" width="395.52"><g transform="matrix(1,0,0,1,0,0)"><svg width="395.52" viewBox="0 -34.95 286.53 34.95" height="48.24087942767405" data-palette-color="#8dbdff"><path d="M27.55-2.15L39.1-2.15 39.1 0 0 0 0-2.15 4.85-2.15 4.85-34.95 16.85-34.95Q26.25-34.95 31.3-30.38 36.35-25.8 36.35-17.5L36.35-17.5Q36.35-6.35 27.55-2.15L27.55-2.15ZM30.4-17.5L30.4-17.5Q30.4-29.5 16.65-29.5L16.65-29.5 10.75-29.5 10.75-5.55 17.3-5.55Q23.65-5.55 27.03-8.58 30.4-11.6 30.4-17.5ZM75.25-2.15L81.05-2.15 81.05 0 69.9 0 66.4-7.95 48.9-7.95 45.4 0 34.25 0 34.25-2.15 40.05-2.15 54.5-34.95 60.8-34.95 75.25-2.15ZM51.3-13.4L64-13.4 57.65-27.8 51.3-13.4ZM94.25-2.15L106.4-2.15 106.4 0 76.2 0 76.2-2.15 88.35-2.15 88.35-29.55 77.75-29.55 77.75-34.95 104.85-34.95 104.85-29.55 94.25-29.55 94.25-2.15ZM142.54-2.15L148.34-2.15 148.34 0 137.19 0 133.69-7.95 116.19-7.95 112.69 0 101.54 0 101.54-2.15 107.34-2.15 121.79-34.95 128.09-34.95 142.54-2.15ZM118.59-13.4L131.29-13.4 124.94-27.8 118.59-13.4ZM143.49-2.15L157.19-2.15 157.19 0 143.49 0 143.49-2.15ZM175.24-2.15L187.39-2.15 187.39 0 157.19 0 157.19-2.15 169.34-2.15 169.34-29.55 158.74-29.55 158.74-34.95 185.84-34.95 185.84-29.55 175.24-29.55 175.24-2.15ZM220.19-2.15L225.03-2.15 225.03 0 214.23 0 205.88-11.75 198.13-11.75 198.13 0 187.38 0 187.38-2.15 192.23-2.15 192.23-34.95 205.23-34.95Q213.23-34.95 216.69-32.25 220.13-29.55 220.13-23.6L220.13-23.6Q220.13-14.95 212.58-12.7L212.58-12.7 220.19-2.15ZM205.48-17.1Q210.48-17.1 212.28-18.65 214.08-20.2 214.08-23.63 214.08-27.05 212.23-28.33 210.38-29.6 205.63-29.6L205.63-29.6 198.13-29.6 198.13-17.1 205.48-17.1ZM223.78-2.15L228.63-2.15 228.63-34.95 234.53-34.95 234.53-17.9 250.53-34.95 258.03-34.95 243.98-19.65 256.68-2.1 256.68-2.15 261.53-2.15 261.53 0 251.23 0 239.63-15.3 234.53-9.8 234.53 0 223.78 0 223.78-2.15ZM276.83-2.15L286.53-2.15 286.53 0 258.98 0 258.98-2.15 264.48-2.15Q262.28-3.15 260.53-5L260.53-5 263.88-9.65Q267.28-6.4 270.53-6.4L270.53-6.4Q272.83-6.4 274.46-7.95 276.08-9.5 276.08-12.6L276.08-12.6 276.08-29.65 264.98-29.65 264.98-34.95 281.98-34.95 281.98-12.9Q281.98-5.1 276.83-2.15L276.83-2.15Z" opacity="1" transform="matrix(1,0,0,1,0,0)" fill="#8dbdff" class="wordmark-text-0" data-fill-palette-color="primary" id="text-0"></path></svg></g></svg></g></svg></g></svg></g></svg></g><defs></defs></svg><rect width="395.52" height="48.24087942767405" fill="none" stroke="none" visibility="hidden"></rect></g></svg></g></svg>